<svg id="visual" viewBox="0 0 900 600" width="900" height="600" xmlns="http://www.w3.org/2000/svg" xmlns:xlink="http://www.w3.org/1999/xlink" version="1.1"><path d="M0 475L9.3 468.8C18.7 462.7 37.3 450.3 56.2 444.5C75 438.7 94 439.3 112.8 440.2C131.7 441 150.3 442 169 449.7C187.7 457.3 206.3 471.7 225 475.7C243.7 479.7 262.3 473.3 281.2 472.3C300 471.3 319 475.7 337.8 474.3C356.7 473 375.3 466 394 459C412.7 452 431.3 445 450 443.5C468.7 442 487.3 446 506.2 454C525 462 544 474 562.8 474C581.7 474 600.3 462 619 459.8C637.7 457.7 656.3 465.3 675 471.3C693.7 477.3 712.3 481.7 731.2 475C750 468.3 769 450.7 787.8 444.2C806.7 437.7 825.3 442.3 844 445.8C862.7 449.3 881.3 451.7 890.7 452.8L900 454L900 601L890.7 601C881.3 601 862.7 601 844 601C825.3 601 806.7 601 787.8 601C769 601 750 601 731.2 601C712.3 601 693.7 601 675 601C656.3 601 637.7 601 619 601C600.3 601 581.7 601 562.8 601C544 601 525 601 506.2 601C487.3 601 468.7 601 450 601C431.3 601 412.7 601 394 601C375.3 601 356.7 601 337.8 601C319 601 300 601 281.2 601C262.3 601 243.7 601 225 601C206.3 601 187.7 601 169 601C150.3 601 131.7 601 112.8 601C94 601 75 601 56.2 601C37.3 601 18.7 601 9.3 601L0 601Z" fill="#22d3ee"></path><path d="M0 481L9.3 479C18.7 477 37.3 473 56.2 474.2C75 475.3 94 481.7 112.8 481C131.7 480.3 150.3 472.7 169 469.2C187.7 465.7 206.3 466.3 225 466.7C243.7 467 262.3 467 281.2 474.8C300 482.7 319 498.3 337.8 498.5C356.7 498.7 375.3 483.3 394 483.3C412.7 483.3 431.3 498.7 450 502.7C468.7 506.7 487.3 499.3 506.2 496.5C525 493.7 544 495.3 562.8 494.5C581.7 493.7 600.3 490.3 619 487.7C637.7 485 656.3 483 675 485.7C693.7 488.3 712.3 495.7 731.2 498C750 500.3 769 497.7 787.8 494.5C806.7 491.3 825.3 487.7 844 490.5C862.7 493.3 881.3 502.7 890.7 507.3L900 512L900 601L890.7 601C881.3 601 862.7 601 844 601C825.3 601 806.7 601 787.8 601C769 601 750 601 731.2 601C712.3 601 693.7 601 675 601C656.3 601 637.7 601 619 601C600.3 601 581.7 601 562.8 601C544 601 525 601 506.2 601C487.3 601 468.7 601 450 601C431.3 601 412.7 601 394 601C375.3 601 356.7 601 337.8 601C319 601 300 601 281.2 601C262.3 601 243.7 601 225 601C206.3 601 187.7 601 169 601C150.3 601 131.7 601 112.8 601C94 601 75 601 56.2 601C37.3 601 18.7 601 9.3 601L0 601Z" fill="#1abad7"></path><path d="M0 519L9.3 519.2C18.7 519.3 37.3 519.7 56.2 519.3C75 519 94 518 112.8 520C131.7 522 150.3 527 169 530.7C187.7 534.3 206.3 536.7 225 532C243.7 527.3 262.3 515.7 281.2 507.8C300 500 319 496 337.8 501.8C356.7 507.7 375.3 523.3 394 524.7C412.7 526 431.3 513 450 505.8C468.7 498.7 487.3 497.3 506.2 496.8C525 496.3 544 496.7 562.8 498.3C581.7 500 600.3 503 619 502.8C637.7 502.7 656.3 499.3 675 500.3C693.7 501.3 712.3 506.7 731.2 507C750 507.3 769 502.7 787.8 500.2C806.7 497.7 825.3 497.3 844 496.5C862.7 495.7 881.3 494.3 890.7 493.7L900 493L900 601L890.7 601C881.3 601 862.7 601 844 601C825.3 601 806.7 601 787.8 601C769 601 750 601 731.2 601C712.3 601 693.7 601 675 601C656.3 601 637.7 601 619 601C600.3 601 581.7 601 562.8 601C544 601 525 601 506.2 601C487.3 601 468.7 601 450 601C431.3 601 412.7 601 394 601C375.3 601 356.7 601 337.8 601C319 601 300 601 281.2 601C262.3 601 243.7 601 225 601C206.3 601 187.7 601 169 601C150.3 601 131.7 601 112.8 601C94 601 75 601 56.2 601C37.3 601 18.7 601 9.3 601L0 601Z" fill="#15a2c0"></path><path d="M0 525L9.3 524.5C18.7 524 37.3 523 56.2 522.8C75 522.7 94 523.3 112.8 523.3C131.7 523.3 150.3 522.7 169 522.5C187.7 522.3 206.3 522.7 225 525.5C243.7 528.3 262.3 533.7 281.2 533.5C300 533.3 319 527.7 337.8 530C356.7 532.3 375.3 542.7 394 548.5C412.7 554.3 431.3 555.7 450 550.8C468.7 546 487.3 535 506.2 531.3C525 527.7 544 531.3 562.8 534.5C581.7 537.7 600.3 540.3 619 538.7C637.7 537 656.3 531 675 533.3C693.7 535.7 712.3 546.3 731.2 546C750 545.7 769 534.3 787.8 529.2C806.7 524 825.3 525 844 526.7C862.7 528.3 881.3 530.7 890.7 531.8L900 533L900 601L890.7 601C881.3 601 862.7 601 844 601C825.3 601 806.7 601 787.8 601C769 601 750 601 731.2 601C712.3 601 693.7 601 675 601C656.3 601 637.7 601 619 601C600.3 601 581.7 601 562.8 601C544 601 525 601 506.2 601C487.3 601 468.7 601 450 601C431.3 601 412.7 601 394 601C375.3 601 356.7 601 337.8 601C319 601 300 601 281.2 601C262.3 601 243.7 601 225 601C206.3 601 187.7 601 169 601C150.3 601 131.7 601 112.8 601C94 601 75 601 56.2 601C37.3 601 18.7 601 9.3 601L0 601Z" fill="#118ba8"></path><path d="M0 589L9.3 586.5C18.7 584 37.3 579 56.2 575.8C75 572.7 94 571.3 112.8 569C131.7 566.7 150.3 563.3 169 561.7C187.7 560 206.3 560 225 561.7C243.7 563.3 262.3 566.7 281.2 570C300 573.3 319 576.7 337.8 575.3C356.7 574 375.3 568 394 563.8C412.7 559.7 431.3 557.3 450 558.3C468.7 559.3 487.3 563.7 506.2 568.2C525 572.7 544 577.3 562.8 575.3C581.7 573.3 600.3 564.7 619 565.7C637.7 566.7 656.3 577.3 675 578.8C693.7 580.3 712.3 572.7 731.2 566.3C750 560 769 555 787.8 559C806.7 563 825.3 576 844 581C862.7 586 881.3 583 890.7 581.5L900 580L900 601L890.7 601C881.3 601 862.7 601 844 601C825.3 601 806.7 601 787.8 601C769 601 750 601 731.2 601C712.3 601 693.7 601 675 601C656.3 601 637.7 601 619 601C600.3 601 581.7 601 562.8 601C544 601 525 601 506.2 601C487.3 601 468.7 601 450 601C431.3 601 412.7 601 394 601C375.3 601 356.7 601 337.8 601C319 601 300 601 281.2 601C262.3 601 243.7 601 225 601C206.3 601 187.7 601 169 601C150.3 601 131.7 601 112.8 601C94 601 75 601 56.2 601C37.3 601 18.7 601 9.3 601L0 601Z" fill="#0e7490"></path></svg>