<svg id="visual" viewBox="0 0 900 600" width="900" height="600" xmlns="http://www.w3.org/2000/svg" xmlns:xlink="http://www.w3.org/1999/xlink" version="1.1"><rect x="0" y="0" width="900" height="600" fill="#F3F4F6"></rect><path d="M837 600L821.2 587.5C805.3 575 773.7 550 773.3 525C773 500 804 475 804.7 450C805.3 425 775.7 400 762.2 375C748.7 350 751.3 325 765.2 300C779 275 804 250 811.5 225C819 200 809 175 809.3 150C809.7 125 820.3 100 825.5 75C830.7 50 830.3 25 830.2 12.5L830 0L900 0L900 12.5C900 25 900 50 900 75C900 100 900 125 900 150C900 175 900 200 900 225C900 250 900 275 900 300C900 325 900 350 900 375C900 400 900 425 900 450C900 475 900 500 900 525C900 550 900 575 900 587.5L900 600Z" fill="#22d3ee"></path><path d="M782 600L781.3 587.5C780.7 575 779.3 550 785.7 525C792 500 806 475 803.2 450C800.3 425 780.7 400 779.7 375C778.7 350 796.3 325 804.8 300C813.3 275 812.7 250 802.3 225C792 200 772 175 772 150C772 125 792 100 804.2 75C816.3 50 820.7 25 822.8 12.5L825 0L900 0L900 12.5C900 25 900 50 900 75C900 100 900 125 900 150C900 175 900 200 900 225C900 250 900 275 900 300C900 325 900 350 900 375C900 400 900 425 900 450C900 475 900 500 900 525C900 550 900 575 900 587.5L900 600Z" fill="#1cbfdc"></path><path d="M803 600L798.8 587.5C794.7 575 786.3 550 794.3 525C802.3 500 826.7 475 829 450C831.3 425 811.7 400 801.5 375C791.3 350 790.7 325 788.5 300C786.3 275 782.7 250 793.8 225C805 200 831 175 843 150C855 125 853 100 842.8 75C832.7 50 814.3 25 805.2 12.5L796 0L900 0L900 12.5C900 25 900 50 900 75C900 100 900 125 900 150C900 175 900 200 900 225C900 250 900 275 900 300C900 325 900 350 900 375C900 400 900 425 900 450C900 475 900 500 900 525C900 550 900 575 900 587.5L900 600Z" fill="#17acc9"></path><path d="M831 600L829.8 587.5C828.7 575 826.3 550 825.8 525C825.3 500 826.7 475 826.3 450C826 425 824 400 831.3 375C838.7 350 855.3 325 861 300C866.7 275 861.3 250 859.2 225C857 200 858 175 851.5 150C845 125 831 100 823.7 75C816.3 50 815.7 25 815.3 12.5L815 0L900 0L900 12.5C900 25 900 50 900 75C900 100 900 125 900 150C900 175 900 200 900 225C900 250 900 275 900 300C900 325 900 350 900 375C900 400 900 425 900 450C900 475 900 500 900 525C900 550 900 575 900 587.5L900 600Z" fill="#1399b6"></path><path d="M859 600L854.8 587.5C850.7 575 842.3 550 841.3 525C840.3 500 846.7 475 854 450C861.3 425 869.7 400 866.5 375C863.3 350 848.7 325 842 300C835.3 275 836.7 250 840.8 225C845 200 852 175 854.5 150C857 125 855 100 854.3 75C853.7 50 854.3 25 854.7 12.5L855 0L900 0L900 12.5C900 25 900 50 900 75C900 100 900 125 900 150C900 175 900 200 900 225C900 250 900 275 900 300C900 325 900 350 900 375C900 400 900 425 900 450C900 475 900 500 900 525C900 550 900 575 900 587.5L900 600Z" fill="#1186a3"></path><path d="M900 600L892.2 587.5C884.3 575 868.7 550 866.5 525C864.3 500 875.7 475 881.5 450C887.3 425 887.7 400 885 375C882.3 350 876.7 325 876.8 300C877 275 883 250 885.8 225C888.7 200 888.3 175 882.2 150C876 125 864 100 865 75C866 50 880 25 887 12.5L894 0L900 0L900 12.5C900 25 900 50 900 75C900 100 900 125 900 150C900 175 900 200 900 225C900 250 900 275 900 300C900 325 900 350 900 375C900 400 900 425 900 450C900 475 900 500 900 525C900 550 900 575 900 587.5L900 600Z" fill="#0e7490"></path></svg>