<svg id="visual" viewBox="0 0 900 600" width="900" height="600" xmlns="http://www.w3.org/2000/svg" xmlns:xlink="http://www.w3.org/1999/xlink" version="1.1"><path d="M128 0L123.8 6.7C119.7 13.3 111.3 26.7 110.8 40C110.3 53.3 117.7 66.7 121.8 80C126 93.3 127 106.7 120.8 120C114.7 133.3 101.3 146.7 97.2 160C93 173.3 98 186.7 104 200C110 213.3 117 226.7 116 240C115 253.3 106 266.7 106.7 280C107.3 293.3 117.7 306.7 122.7 320C127.7 333.3 127.3 346.7 122.7 360C118 373.3 109 386.7 105.8 400C102.7 413.3 105.3 426.7 113.3 440C121.3 453.3 134.7 466.7 137.5 480C140.3 493.3 132.7 506.7 123.8 520C115 533.3 105 546.7 106.5 560C108 573.3 121 586.7 127.5 593.3L134 600L0 600L0 593.3C0 586.7 0 573.3 0 560C0 546.7 0 533.3 0 520C0 506.7 0 493.3 0 480C0 466.7 0 453.3 0 440C0 426.7 0 413.3 0 400C0 386.7 0 373.3 0 360C0 346.7 0 333.3 0 320C0 306.7 0 293.3 0 280C0 266.7 0 253.3 0 240C0 226.7 0 213.3 0 200C0 186.7 0 173.3 0 160C0 146.7 0 133.3 0 120C0 106.7 0 93.3 0 80C0 66.7 0 53.3 0 40C0 26.7 0 13.3 0 6.7L0 0Z" fill="#22d3ee"></path><path d="M88 0L93.8 6.7C99.7 13.3 111.3 26.7 117.3 40C123.3 53.3 123.7 66.7 116.3 80C109 93.3 94 106.7 88.8 120C83.7 133.3 88.3 146.7 86.7 160C85 173.3 77 186.7 77.5 200C78 213.3 87 226.7 96 240C105 253.3 114 266.7 116.5 280C119 293.3 115 306.7 113.3 320C111.7 333.3 112.3 346.7 108.2 360C104 373.3 95 386.7 92.2 400C89.3 413.3 92.7 426.7 98.2 440C103.7 453.3 111.3 466.7 108.7 480C106 493.3 93 506.7 87.8 520C82.7 533.3 85.3 546.7 87.2 560C89 573.3 90 586.7 90.5 593.3L91 600L0 600L0 593.3C0 586.7 0 573.3 0 560C0 546.7 0 533.3 0 520C0 506.7 0 493.3 0 480C0 466.7 0 453.3 0 440C0 426.7 0 413.3 0 400C0 386.7 0 373.3 0 360C0 346.7 0 333.3 0 320C0 306.7 0 293.3 0 280C0 266.7 0 253.3 0 240C0 226.7 0 213.3 0 200C0 186.7 0 173.3 0 160C0 146.7 0 133.3 0 120C0 106.7 0 93.3 0 80C0 66.7 0 53.3 0 40C0 26.7 0 13.3 0 6.7L0 0Z" fill="#1abad7"></path><path d="M95 0L93.2 6.7C91.3 13.3 87.7 26.7 82.7 40C77.7 53.3 71.3 66.7 65.7 80C60 93.3 55 106.7 55 120C55 133.3 60 146.7 65.7 160C71.3 173.3 77.7 186.7 80.7 200C83.7 213.3 83.3 226.7 83.8 240C84.3 253.3 85.7 266.7 84 280C82.3 293.3 77.7 306.7 76.7 320C75.7 333.3 78.3 346.7 79.5 360C80.7 373.3 80.3 386.7 79.8 400C79.3 413.3 78.7 426.7 77.2 440C75.7 453.3 73.3 466.7 72.5 480C71.7 493.3 72.3 506.7 74.2 520C76 533.3 79 546.7 77.2 560C75.3 573.3 68.7 586.7 65.3 593.3L62 600L0 600L0 593.3C0 586.7 0 573.3 0 560C0 546.7 0 533.3 0 520C0 506.7 0 493.3 0 480C0 466.7 0 453.3 0 440C0 426.7 0 413.3 0 400C0 386.7 0 373.3 0 360C0 346.7 0 333.3 0 320C0 306.7 0 293.3 0 280C0 266.7 0 253.3 0 240C0 226.7 0 213.3 0 200C0 186.7 0 173.3 0 160C0 146.7 0 133.3 0 120C0 106.7 0 93.3 0 80C0 66.7 0 53.3 0 40C0 26.7 0 13.3 0 6.7L0 0Z" fill="#15a2c0"></path><path d="M35 0L37.8 6.7C40.7 13.3 46.3 26.7 50.5 40C54.7 53.3 57.3 66.7 55.5 80C53.7 93.3 47.3 106.7 44 120C40.7 133.3 40.3 146.7 39 160C37.7 173.3 35.3 186.7 35 200C34.7 213.3 36.3 226.7 42.3 240C48.3 253.3 58.7 266.7 62.2 280C65.7 293.3 62.3 306.7 59.7 320C57 333.3 55 346.7 54.2 360C53.3 373.3 53.7 386.7 51 400C48.3 413.3 42.7 426.7 41.5 440C40.3 453.3 43.7 466.7 47.5 480C51.3 493.3 55.7 506.7 57 520C58.3 533.3 56.7 546.7 57.7 560C58.7 573.3 62.3 586.7 64.2 593.3L66 600L0 600L0 593.3C0 586.7 0 573.3 0 560C0 546.7 0 533.3 0 520C0 506.7 0 493.3 0 480C0 466.7 0 453.3 0 440C0 426.7 0 413.3 0 400C0 386.7 0 373.3 0 360C0 346.7 0 333.3 0 320C0 306.7 0 293.3 0 280C0 266.7 0 253.3 0 240C0 226.7 0 213.3 0 200C0 186.7 0 173.3 0 160C0 146.7 0 133.3 0 120C0 106.7 0 93.3 0 80C0 66.7 0 53.3 0 40C0 26.7 0 13.3 0 6.7L0 0Z" fill="#118ba8"></path><path d="M41 0L40.2 6.7C39.3 13.3 37.7 26.7 33.3 40C29 53.3 22 66.7 24.2 80C26.3 93.3 37.7 106.7 40.7 120C43.7 133.3 38.3 146.7 33.7 160C29 173.3 25 186.7 21.8 200C18.7 213.3 16.3 226.7 20.5 240C24.7 253.3 35.3 266.7 41.2 280C47 293.3 48 306.7 46.2 320C44.3 333.3 39.7 346.7 39 360C38.3 373.3 41.7 386.7 39.2 400C36.7 413.3 28.3 426.7 25 440C21.7 453.3 23.3 466.7 27.8 480C32.3 493.3 39.7 506.7 41.2 520C42.7 533.3 38.3 546.7 36.5 560C34.7 573.3 35.3 586.7 35.7 593.3L36 600L0 600L0 593.3C0 586.7 0 573.3 0 560C0 546.7 0 533.3 0 520C0 506.7 0 493.3 0 480C0 466.7 0 453.3 0 440C0 426.7 0 413.3 0 400C0 386.7 0 373.3 0 360C0 346.7 0 333.3 0 320C0 306.7 0 293.3 0 280C0 266.7 0 253.3 0 240C0 226.7 0 213.3 0 200C0 186.7 0 173.3 0 160C0 146.7 0 133.3 0 120C0 106.7 0 93.3 0 80C0 66.7 0 53.3 0 40C0 26.7 0 13.3 0 6.7L0 0Z" fill="#0e7490"></path></svg>