<svg id="visual" viewBox="0 0 900 600" width="900" height="600" xmlns="http://www.w3.org/2000/svg" xmlns:xlink="http://www.w3.org/1999/xlink" version="1.1"><path d="M774 600L778.2 593.3C782.3 586.7 790.7 573.3 791.2 560C791.7 546.7 784.3 533.3 780.2 520C776 506.7 775 493.3 781.2 480C787.3 466.7 800.7 453.3 804.8 440C809 426.7 804 413.3 798 400C792 386.7 785 373.3 786 360C787 346.7 796 333.3 795.3 320C794.7 306.7 784.3 293.3 779.3 280C774.3 266.7 774.7 253.3 779.3 240C784 226.7 793 213.3 796.2 200C799.3 186.7 796.7 173.3 788.7 160C780.7 146.7 767.3 133.3 764.5 120C761.7 106.7 769.3 93.3 778.2 80C787 66.7 797 53.3 795.5 40C794 26.7 781 13.3 774.5 6.7L768 0L900 0L900 6.7C900 13.3 900 26.7 900 40C900 53.3 900 66.7 900 80C900 93.3 900 106.7 900 120C900 133.3 900 146.7 900 160C900 173.3 900 186.7 900 200C900 213.3 900 226.7 900 240C900 253.3 900 266.7 900 280C900 293.3 900 306.7 900 320C900 333.3 900 346.7 900 360C900 373.3 900 386.7 900 400C900 413.3 900 426.7 900 440C900 453.3 900 466.7 900 480C900 493.3 900 506.7 900 520C900 533.3 900 546.7 900 560C900 573.3 900 586.7 900 593.3L900 600Z" fill="#22d3ee"></path><path d="M814 600L808.2 593.3C802.3 586.7 790.7 573.3 784.7 560C778.7 546.7 778.3 533.3 785.7 520C793 506.7 808 493.3 813.2 480C818.3 466.7 813.7 453.3 815.3 440C817 426.7 825 413.3 824.5 400C824 386.7 815 373.3 806 360C797 346.7 788 333.3 785.5 320C783 306.7 787 293.3 788.7 280C790.3 266.7 789.7 253.3 793.8 240C798 226.7 807 213.3 809.8 200C812.7 186.7 809.3 173.3 803.8 160C798.3 146.7 790.7 133.3 793.3 120C796 106.7 809 93.3 814.2 80C819.3 66.7 816.7 53.3 814.8 40C813 26.7 812 13.3 811.5 6.7L811 0L900 0L900 6.7C900 13.3 900 26.7 900 40C900 53.3 900 66.7 900 80C900 93.3 900 106.7 900 120C900 133.3 900 146.7 900 160C900 173.3 900 186.7 900 200C900 213.3 900 226.7 900 240C900 253.3 900 266.7 900 280C900 293.3 900 306.7 900 320C900 333.3 900 346.7 900 360C900 373.3 900 386.7 900 400C900 413.3 900 426.7 900 440C900 453.3 900 466.7 900 480C900 493.3 900 506.7 900 520C900 533.3 900 546.7 900 560C900 573.3 900 586.7 900 593.3L900 600Z" fill="#1abad7"></path><path d="M807 600L808.8 593.3C810.7 586.7 814.3 573.3 819.3 560C824.3 546.7 830.7 533.3 836.3 520C842 506.7 847 493.3 847 480C847 466.7 842 453.3 836.3 440C830.7 426.7 824.3 413.3 821.3 400C818.3 386.7 818.7 373.3 818.2 360C817.7 346.7 816.3 333.3 818 320C819.7 306.7 824.3 293.3 825.3 280C826.3 266.7 823.7 253.3 822.5 240C821.3 226.7 821.7 213.3 822.2 200C822.7 186.7 823.3 173.3 824.8 160C826.3 146.7 828.7 133.3 829.5 120C830.3 106.7 829.7 93.3 827.8 80C826 66.7 823 53.3 824.8 40C826.7 26.7 833.3 13.3 836.7 6.7L840 0L900 0L900 6.7C900 13.3 900 26.7 900 40C900 53.3 900 66.7 900 80C900 93.3 900 106.7 900 120C900 133.3 900 146.7 900 160C900 173.3 900 186.7 900 200C900 213.3 900 226.7 900 240C900 253.3 900 266.7 900 280C900 293.3 900 306.7 900 320C900 333.3 900 346.7 900 360C900 373.3 900 386.7 900 400C900 413.3 900 426.7 900 440C900 453.3 900 466.7 900 480C900 493.3 900 506.7 900 520C900 533.3 900 546.7 900 560C900 573.3 900 586.7 900 593.3L900 600Z" fill="#15a2c0"></path><path d="M867 600L864.2 593.3C861.3 586.7 855.7 573.3 851.5 560C847.3 546.7 844.7 533.3 846.5 520C848.3 506.7 854.7 493.3 858 480C861.3 466.7 861.7 453.3 863 440C864.3 426.7 866.7 413.3 867 400C867.3 386.7 865.7 373.3 859.7 360C853.7 346.7 843.3 333.3 839.8 320C836.3 306.7 839.7 293.3 842.3 280C845 266.7 847 253.3 847.8 240C848.7 226.7 848.3 213.3 851 200C853.7 186.7 859.3 173.3 860.5 160C861.7 146.7 858.3 133.3 854.5 120C850.7 106.7 846.3 93.3 845 80C843.7 66.7 845.3 53.3 844.3 40C843.3 26.7 839.7 13.3 837.8 6.7L836 0L900 0L900 6.7C900 13.3 900 26.7 900 40C900 53.3 900 66.7 900 80C900 93.3 900 106.7 900 120C900 133.3 900 146.7 900 160C900 173.3 900 186.7 900 200C900 213.3 900 226.7 900 240C900 253.3 900 266.7 900 280C900 293.3 900 306.7 900 320C900 333.3 900 346.7 900 360C900 373.3 900 386.7 900 400C900 413.3 900 426.7 900 440C900 453.3 900 466.7 900 480C900 493.3 900 506.7 900 520C900 533.3 900 546.7 900 560C900 573.3 900 586.7 900 593.3L900 600Z" fill="#118ba8"></path><path d="M861 600L861.8 593.3C862.7 586.7 864.3 573.3 868.7 560C873 546.7 880 533.3 877.8 520C875.7 506.7 864.3 493.3 861.3 480C858.3 466.7 863.7 453.3 868.3 440C873 426.7 877 413.3 880.2 400C883.3 386.7 885.7 373.3 881.5 360C877.3 346.7 866.7 333.3 860.8 320C855 306.7 854 293.3 855.8 280C857.7 266.7 862.3 253.3 863 240C863.7 226.7 860.3 213.3 862.8 200C865.3 186.7 873.7 173.3 877 160C880.3 146.7 878.7 133.3 874.2 120C869.7 106.7 862.3 93.3 860.8 80C859.3 66.7 863.7 53.3 865.5 40C867.3 26.7 866.7 13.3 866.3 6.7L866 0L900 0L900 6.7C900 13.3 900 26.7 900 40C900 53.3 900 66.7 900 80C900 93.3 900 106.7 900 120C900 133.3 900 146.7 900 160C900 173.3 900 186.7 900 200C900 213.3 900 226.7 900 240C900 253.3 900 266.7 900 280C900 293.3 900 306.7 900 320C900 333.3 900 346.7 900 360C900 373.3 900 386.7 900 400C900 413.3 900 426.7 900 440C900 453.3 900 466.7 900 480C900 493.3 900 506.7 900 520C900 533.3 900 546.7 900 560C900 573.3 900 586.7 900 593.3L900 600Z" fill="#0e7490"></path></svg>